<svg width="169" height="169" viewBox="0 0 169 169" fill="none" xmlns="http://www.w3.org/2000/svg">
<g clip-path="url(#clip0_40002427_21615)">
<path d="M112.917 84.9463L106.113 88.875L104.148 85.4727L121.507 75.4505L123.472 78.8529L116.702 82.7615L128.367 102.967L124.583 105.152L112.917 84.9463Z" fill="#FF483D"/>
<path d="M109.478 100.448C111.389 103.758 112.086 106.703 111.571 109.284C111.042 111.843 109.365 113.937 106.542 115.567C103.672 117.224 100.997 117.642 98.5168 116.821C96.0235 115.977 93.8214 113.9 91.9105 110.59L84.0732 97.0156L87.8575 94.8308L95.4542 107.989C96.0556 109.03 96.6911 109.944 97.3609 110.73C98.0307 111.516 98.7361 112.096 99.477 112.471C100.221 112.905 101.03 113.102 101.901 113.062C102.773 113.021 103.672 112.734 104.597 112.199C105.523 111.665 106.21 111.037 106.658 110.316C107.105 109.594 107.35 108.789 107.393 107.901C107.392 107.099 107.219 106.211 106.874 105.238C106.551 104.252 106.089 103.238 105.488 102.196L97.8909 89.038L101.64 86.8732L109.478 100.448Z" fill="#FF483D"/>
<path d="M69.3643 121.013C69.9924 122.101 70.7344 123.092 71.5903 123.986C72.4693 124.867 73.4089 125.559 74.4089 126.062C75.4553 126.538 76.5469 126.772 77.6839 126.764C78.844 126.742 80.0143 126.39 81.1947 125.709C82.3751 125.027 83.2532 124.196 83.8289 123.216C84.4278 122.222 84.7712 121.16 84.859 120.029C84.9467 118.898 84.8288 117.732 84.5052 116.53C84.2048 115.315 83.7406 114.163 83.1125 113.075C82.4711 111.964 81.706 110.986 80.8171 110.142C79.9514 109.284 78.982 108.594 77.909 108.071C76.8894 107.642 75.8062 107.449 74.6594 107.494C73.5358 107.526 72.4069 107.869 71.2728 108.524C70.1156 109.192 69.2424 110.004 68.6533 110.962C68.0641 111.919 67.7008 112.947 67.5631 114.045C67.4789 115.235 67.5919 116.42 67.9021 117.598C68.2355 118.764 68.7229 119.902 69.3643 121.013ZM65.3918 123.353C64.3896 121.617 63.7106 119.879 63.3548 118.141C63.0221 116.389 63.018 114.724 63.3425 113.148C63.6305 111.563 64.272 110.081 65.2669 108.704C66.2486 107.304 67.5957 106.11 69.3085 105.121C71.0212 104.132 72.7292 103.563 74.4324 103.413C76.1222 103.239 77.7258 103.425 79.2432 103.968C80.7703 104.475 82.1978 105.317 83.5258 106.495C84.8537 107.672 86.0187 109.129 87.0209 110.865C88.0632 112.67 88.769 114.454 89.1381 116.216C89.5171 117.941 89.551 119.604 89.2399 121.203C88.9154 122.779 88.249 124.244 87.2407 125.597C86.219 126.928 84.8517 128.088 83.139 129.076C81.4031 130.079 79.7036 130.689 78.0405 130.909C76.364 131.105 74.7738 130.943 73.2698 130.423C71.7524 129.88 70.3182 129.026 68.9672 127.862C67.6259 126.661 66.4341 125.158 65.3918 123.353Z" fill="#FF483D"/>
<path d="M84.9268 41.0195L91.6967 37.1109C93.3863 36.1354 95.0907 35.5063 96.8099 35.2235C98.5522 34.9273 100.26 34.9446 101.932 35.2753C103.558 35.6327 105.086 36.3551 106.516 37.4427C107.956 38.4938 109.224 39.9682 110.32 41.8661C111.509 43.9261 112.26 45.8686 112.573 47.6937C112.886 49.5189 112.814 51.2115 112.357 52.7715C111.89 54.3681 111.068 55.8303 109.891 57.1582C108.7 58.463 107.178 59.6499 105.327 60.7189L98.5568 64.6275L84.9268 41.0195ZM100.431 59.0551L103.348 57.3713C105.986 55.848 107.589 54.0276 108.157 51.9101C108.734 49.7561 108.174 47.2094 106.477 44.27C105.662 42.8582 104.758 41.7749 103.767 41.0202C102.786 40.229 101.741 39.675 100.632 39.3584C99.5735 39.0747 98.4627 39.0217 97.3 39.1992C96.147 39.3403 95.0497 39.7115 94.0082 40.3128L90.71 42.217L100.431 59.0551Z" fill="#FF483D"/>
<path d="M69.4473 49.9102L73.2315 47.7253L84.9373 68.0004L94.4847 62.4883L96.429 65.8559L83.0974 73.5529L69.4473 49.9102Z" fill="#FF483D"/>
<path d="M54.7032 73.9308C55.3312 75.0186 56.0732 76.0098 56.9291 76.9043C57.8082 77.7855 58.7478 78.4774 59.7478 78.9802C60.7941 79.4562 61.8858 79.69 63.0228 79.6816C64.1829 79.6599 65.3532 79.3082 66.5336 78.6267C67.714 77.9452 68.5921 77.1142 69.1678 76.1338C69.7667 75.1399 70.11 74.0776 70.1978 72.9468C70.2856 71.816 70.1677 70.6497 69.8441 69.4478C69.5437 68.2326 69.0794 67.0811 68.4514 65.9932C67.81 64.8823 67.0448 63.9045 66.156 63.0598C65.2903 62.2018 64.3209 61.5116 63.2478 60.9893C62.2282 60.5596 61.145 60.3672 59.9983 60.412C58.8747 60.4436 57.7458 60.7867 56.6117 61.4415C55.4544 62.1096 54.5812 62.9224 53.9921 63.8797C53.403 64.837 53.0396 65.8646 52.902 66.9625C52.8178 68.1529 52.9308 69.3375 53.241 70.5162C53.5744 71.6816 54.0618 72.8198 54.7032 73.9308ZM50.7307 76.2706C49.7285 74.5347 49.0495 72.7974 48.6937 71.0586C48.361 69.3065 48.3569 67.6424 48.6814 66.0663C48.9693 64.4805 49.6108 62.9992 50.6058 61.6224C51.5874 60.2224 52.9346 59.028 54.6473 58.0392C56.3601 57.0503 58.0681 56.4808 59.7713 56.3307C61.4611 56.1574 63.0647 56.3426 64.5821 56.8861C66.1092 57.3931 67.5367 58.2354 68.8646 59.4129C70.1925 60.5904 71.3576 62.0471 72.3598 63.783C73.4021 65.5883 74.1078 67.3719 74.477 69.1338C74.856 70.8592 74.8899 72.5215 74.5788 74.1207C74.2543 75.6968 73.5879 77.1616 72.5795 78.5153C71.5578 79.8458 70.1906 81.0055 68.4779 81.9943C66.742 82.9966 65.0425 83.6074 63.3794 83.827C61.7029 84.0234 60.1126 83.8614 58.6086 83.3411C57.0913 82.7975 55.6571 81.9437 54.306 80.7795C52.9648 79.5789 51.773 78.0759 50.7307 76.2706Z" fill="#FF483D"/>
<path d="M40.4161 67.4115C40.6941 68.0533 40.9538 68.6903 41.1953 69.3224C41.4368 69.9545 41.6917 70.6097 41.9599 71.2881C41.3669 71.3835 40.8519 71.4803 40.4147 71.5784C39.9874 71.6399 39.5734 71.7247 39.1728 71.8325C38.749 71.9537 38.3568 72.103 37.9963 72.2803C37.6224 72.4345 37.2271 72.6318 36.8105 72.8723C36.255 73.193 35.7841 73.5266 35.3978 73.8731C35.0213 74.1831 34.6996 74.5077 34.4326 74.847C34.2457 75.3252 34.1368 75.8047 34.1058 76.2855C34.0979 76.7529 34.2611 77.276 34.5951 77.8546C34.9025 78.3869 35.2605 78.7666 35.6693 78.9935C36.0878 79.1839 36.5459 79.336 37.0437 79.4498C37.5512 79.5271 38.0984 79.5661 38.6851 79.5668C39.2585 79.5444 39.9013 79.4818 40.6136 79.3792L40.5935 79.3445C41.4518 79.281 42.36 79.2504 43.318 79.2528C44.2858 79.2187 45.2425 79.2989 46.1882 79.4936C47.0777 79.7515 47.9464 80.1604 48.7942 80.7201C49.6286 81.2568 50.3131 81.988 50.8476 82.9138C51.5826 84.1868 51.9725 85.3966 52.0174 86.5434C52.0489 87.667 51.8249 88.7222 51.3453 89.7089C50.8826 90.7783 50.1925 91.7477 49.2748 92.617C48.3669 93.4498 47.3112 94.2136 46.1076 94.9085C45.2744 95.3895 44.3761 95.7847 43.4129 96.0939C42.4362 96.3801 41.4511 96.6248 40.4576 96.8281C40.1796 96.1862 39.9016 95.5444 39.6236 94.9025C39.3687 94.2473 39.0858 93.6237 38.7749 93.0317C39.1889 92.947 39.6327 92.8605 40.1063 92.7722C40.5898 92.6474 41.0963 92.5092 41.6261 92.3577C42.1558 92.2061 42.6855 92.0546 43.2152 91.9031C43.7316 91.7284 44.1865 91.5275 44.5799 91.3003C45.1586 90.9662 45.6392 90.5961 46.022 90.19C46.4047 89.7839 46.7375 89.3448 47.0205 88.8729C47.2901 88.3777 47.432 87.8484 47.4461 87.2848C47.4468 86.698 47.2533 86.069 46.8658 85.3978C46.3447 84.4952 45.7057 83.9229 44.9488 83.6809C44.1919 83.439 43.318 83.3418 42.327 83.3893C41.3325 83.3771 40.2703 83.4349 39.1405 83.5626C38.0204 83.6538 36.9613 83.6635 35.9632 83.5917C34.9019 83.4638 33.9077 83.1583 32.9807 82.6751C32.0403 82.1688 31.2828 81.418 30.7082 80.4228C30.1069 79.3812 29.7691 78.3418 29.6948 77.3046C29.6438 76.254 29.8068 75.2803 30.1841 74.3836C30.5808 73.4139 31.162 72.5229 31.9274 71.7106C32.6929 70.8984 33.6195 70.1782 34.7073 69.5502C35.4943 69.0958 36.3858 68.6891 37.382 68.33C38.388 67.9343 39.3994 67.6282 40.4161 67.4115Z" fill="#FF483D"/>
<path fill-rule="evenodd" clip-rule="evenodd" d="M123.788 152.767C161.656 130.904 174.631 82.4812 152.768 44.6125C130.904 6.7438 82.4812 -6.23098 44.6125 15.6325C6.74382 37.496 -6.23096 85.9186 15.6325 123.787C37.496 161.656 85.9186 174.631 123.788 152.767ZM126.293 157.107C166.559 133.86 180.355 82.3724 157.107 42.107C133.86 1.84152 82.3724 -11.9545 42.107 11.2928C1.84153 34.5401 -11.9545 86.0273 11.2928 126.293C34.5401 166.558 86.0274 180.354 126.293 157.107Z" fill="#FF483D"/>
</g>
<defs>
<clipPath id="clip0_40002427_21615">
<rect width="169" height="169" fill="white"/>
</clipPath>
</defs>
</svg>
