<svg width="22" height="22" viewBox="0 0 22 22" fill="none" xmlns="http://www.w3.org/2000/svg">
<g clip-path="url(#clip0_6892_22752)">
<path fill-rule="evenodd" clip-rule="evenodd" d="M22.0006 11.2508C22.0015 10.496 21.9332 9.74275 21.7965 9H11.2222V13.2549H17.2633C17.1379 13.9273 16.8748 14.5677 16.4899 15.1376C16.105 15.7076 15.6062 16.1952 15.0237 16.571V19.3316H18.6507C20.7729 17.4166 21.9975 14.5959 21.9975 11.2487L22.0006 11.2508Z" fill="#3E82F1"/>
<path fill-rule="evenodd" clip-rule="evenodd" d="M11.2247 21.9977C14.2553 21.9977 16.7964 21.0133 18.6532 19.3335L15.0262 16.5729C14.0206 17.233 12.7347 17.6236 11.2247 17.6236C8.3009 17.6236 5.82649 15.6879 4.94458 13.0879H1.19385V15.9387C2.12818 17.7607 3.56108 19.2923 5.33245 20.3623C7.10382 21.4322 9.14388 21.9985 11.2247 21.9977Z" fill="#32A753"/>
<path fill-rule="evenodd" clip-rule="evenodd" d="M4.94452 13.0886C4.47501 11.7335 4.47501 10.2645 4.94452 8.90937V6.05859H1.19378C0.408778 7.59185 0 9.28358 0 10.999C0 12.7144 0.408778 14.4062 1.19378 15.9394L4.94452 13.0886Z" fill="#F9BB00"/>
<path fill-rule="evenodd" clip-rule="evenodd" d="M11.2245 4.37409C12.8731 4.37409 14.3524 4.92953 15.5156 6.01968L18.7345 2.86425C16.7909 1.08912 14.2499 7.60981e-07 11.2267 7.60981e-07C9.14583 -0.000757715 7.10577 0.565483 5.3344 1.63546C3.56304 2.70545 2.13013 4.23702 1.1958 6.05906L4.94654 8.90984C5.82844 6.30984 8.30284 4.37409 11.2267 4.37409H11.2245Z" fill="#E74133"/>
</g>
<defs>
<clipPath id="clip0_6892_22752">
<rect width="22" height="22" fill="white"/>
</clipPath>
</defs>
</svg>
